<?xml version="1.0" encoding="utf-8"?>
<!-- Generator: Adobe Illustrator 21.0.0, SVG Export Plug-In . SVG Version: 6.00 Build 0)  -->
<svg version="1.1" id="Layer_1" xmlns="http://www.w3.org/2000/svg" xmlns:xlink="http://www.w3.org/1999/xlink" x="0px" y="0px"
	 viewBox="0 0 500 500" style="enable-background:new 0 0 500 500;" xml:space="preserve">
<g>
	<path d="M483.4,298.8v11.1H431v-11.1h7.4c0.8-0.2,1.8-1.4,1.7-2.9c0-1.2-0.5-2-3.3-5.6l-16.9-20.5L404,282.4v12.1
		c0.3,3,1.8,4.2,6.9,4.2h9v11.1h-108v-11.1h10.8c2.3-0.5,3-1.7,3.5-6.9v-33.8c0-4.1,0-6.2-0.2-7.5c-1.2-11.3-13.9-18.3-26.8-12.3
		c-9.4,4.3-14.3,12.5-14.3,24.3v32c0.2,2.3,1.4,3.9,3.4,4l1,0.2h9.9v11.1H130.9v-11.1h7c8.8,0,10.2-1.2,10.4-8.6v-84.3
		c0-7.4-1.2-8.6-9.2-8.6h-8.3v-11.1H169v104.1c0,7.2,1.2,8.6,7.9,8.6h22.5c0.6,0,1.2,0,1.8-0.1c5-0.3,6.2-2.2,6.1-8.5l-0.2-5.8V241
		c-0.3-2.8-2.2-4.1-6.6-4.1h-9.3v-11.1h36.5v59.4c0,13.2,9.9,13.6,11.2,13.6c0.1,0,0.2,0,0.2,0h17.1c6.8,0,8.2-1.5,8.2-8.4l-0.2-5.9
		V242l-0.2-1c-0.3-3-2.1-4.1-7.2-4.1h-10v-11.1h38.1v11.8c4.3-5.3,9.7-9.2,16.5-11.4c28.8-9.9,45.4,5.1,45.4,32V293l0.2,1.5
		c0.2,3.1,1.7,4.3,6.1,4.3h20.7c0,0,8.7-1.4,7.9-8.6v-83.7l1.6-3.6v-1.5c-0.4-2.9-2.5-4.2-7.8-4.2h-1.4c-1.3-0.1-2.3,0-2.6,0
		c-0.1,0-0.1,0-0.1,0h-5.6v-11.1H404v81.1l27.9-21.9c4.3-3.4,4.8-3.8,5.2-4.3c0.9-1.4,0.3-3.3-0.9-3.6c-0.7-0.3-1.2-0.5-1.9-0.5
		h-1.6l-8.1-0.2v-11h50.8v11.1h-9.3c-3.3,0-4.8,0.5-8.8,2.9c-0.7,0.5-1.2,0.9-1.9,1.4l-2.1,1.5l-3.6,2.8l-13.2,10.7l27.9,34.1
		l2.2,2.6l1.4,1.7c0.4,0.5,0.9,0.9,1.2,1.4c2.6,2.4,3.6,2.9,5.7,2.9H483.4z"/>
	<path d="M75.7,222.7c-8,1.5-15.3,5.5-21,11.2v-47.8H16.6v11.1h11.1c5.3,0,6.4,1.3,6.4,8.4v104.3h10.2l5.7-13.6
		c0.5,0.7,1.2,1.4,1.8,2.1c11,11.7,22.6,15.8,37.5,12.7c17.6-3.6,30.5-17.7,32.8-36.5c1.8-13.4-0.3-24.6-5.2-32.8
		C108.2,226.5,92.7,219.3,75.7,222.7z M72.1,300.6c-11.5-2.7-19.4-13.6-19.4-32.1c-0.2-13.4,3.4-22.8,9.4-28.5
		c10.3-9.8,26.4-7.9,34.3,3.9c4,6,6,13.2,6,23.3C102.3,292.6,88,304.4,72.1,300.6z"/>
	<path d="M201.9,197.4c-0.2-6.9,5.7-13,13.2-13.4c3.8-0.2,7.4,1.2,10.3,3.8c5.5,5,5.7,13.7,0.2,18.9c-2.6,2.7-6.2,4.1-9.9,4.1
		C207.9,210.8,201.9,204.6,201.9,197.4z"/>
	<path d="M371.6,197.2C371.5,197.2,371.5,197.2,371.6,197.2l2.6,0C372.9,197,371.9,197.1,371.6,197.2z"/>
	<path d="M383.4,201.4v1.5l-1.6,3.6c-0.1-7.2-4.6-9-7.6-9.3h1.4C380.9,197.2,383,198.5,383.4,201.4z"/>
</g>
<path d="M230,289.7"/>
</svg>
