<?xml version="1.0" encoding="utf-8"?>
<!-- Generator: Adobe Illustrator 21.0.0, SVG Export Plug-In . SVG Version: 6.00 Build 0)  -->
<svg version="1.1" id="Layer_1" xmlns="http://www.w3.org/2000/svg" xmlns:xlink="http://www.w3.org/1999/xlink" x="0px" y="0px"
	 viewBox="0 0 500 500" style="enable-background:new 0 0 500 500;" xml:space="preserve">
<style type="text/css">
	.st0{fill:#FFFFFF;}
</style>
<g>
	<path d="M250.6,100C104.2,100,9.4,160.7,8.1,248.7C7.5,337.6,103,399.4,250.6,399.4c146.3,0,241.8-60.7,242.4-148.8
		C493.6,161.9,398.1,100,250.6,100z M255.9,377.4c-111.5,0-183.6-51.9-183.2-126.5c1-73.9,72.6-124.8,183.2-124.8
		c111.4,0,183.6,51.9,183.1,126.4C438.5,326.5,366.4,377.4,255.9,377.4z"/>
</g>
<circle cx="250.6" cy="249.7" r="111"/>
<path class="st0" d="M255.5,179.9c-0.3-10.3,8.5-19.6,19.9-20.1c5.7-0.2,11.1,1.8,15.5,5.7c8.2,7.5,8.5,20.6,0.2,28.4
	c-3.9,4.1-9.3,6.2-15,6.2C264.5,200,255.5,190.7,255.5,179.9z"/>
</svg>
